<!-- <svg xmlns="http://www.w3.org/2000/svg" viewBox="0 0 1440 320"><path fill="#6ABE46" fill-opacity="1" d="M0,160L48,181.3C96,203,192,245,288,234.7C384,224,480,160,576,154.7C672,149,768,203,864,213.3C960,224,1056,192,1152,160C1248,128,1344,96,1392,80L1440,64L1440,0L1392,0C1344,0,1248,0,1152,0C1056,0,960,0,864,0C768,0,672,0,576,0C480,0,384,0,288,0C192,0,96,0,48,0L0,0Z"></path></svg> -->
<svg id="wave" style="transform:rotate(180deg); transition: 0.3s" viewBox="0 0 1440 260" version="1.1" xmlns="http://www.w3.org/2000/svg"><defs><linearGradient id="sw-gradient-0" x1="0" x2="0" y1="1" y2="0"><stop stop-color="rgba(106, 190, 70, 1)" offset="0%"></stop><stop stop-color="rgba(106, 190, 70, 0.56)" offset="100%"></stop></linearGradient></defs><path style="transform:translate(0, 0px); opacity:1" fill="url(#sw-gradient-0)" d="M0,182L40,156C80,130,160,78,240,82.3C320,87,400,147,480,147.3C560,147,640,87,720,69.3C800,52,880,78,960,104C1040,130,1120,156,1200,143C1280,130,1360,78,1440,78C1520,78,1600,130,1680,151.7C1760,173,1840,165,1920,156C2000,147,2080,139,2160,138.7C2240,139,2320,147,2400,134.3C2480,121,2560,87,2640,95.3C2720,104,2800,156,2880,147.3C2960,139,3040,69,3120,60.7C3200,52,3280,104,3360,104C3440,104,3520,52,3600,60.7C3680,69,3760,139,3840,138.7C3920,139,4000,69,4080,43.3C4160,17,4240,35,4320,65C4400,95,4480,139,4560,147.3C4640,156,4720,130,4800,99.7C4880,69,4960,35,5040,34.7C5120,35,5200,69,5280,99.7C5360,130,5440,156,5520,173.3C5600,191,5680,199,5720,203.7L5760,208L5760,260L5720,260C5680,260,5600,260,5520,260C5440,260,5360,260,5280,260C5200,260,5120,260,5040,260C4960,260,4880,260,4800,260C4720,260,4640,260,4560,260C4480,260,4400,260,4320,260C4240,260,4160,260,4080,260C4000,260,3920,260,3840,260C3760,260,3680,260,3600,260C3520,260,3440,260,3360,260C3280,260,3200,260,3120,260C3040,260,2960,260,2880,260C2800,260,2720,260,2640,260C2560,260,2480,260,2400,260C2320,260,2240,260,2160,260C2080,260,2000,260,1920,260C1840,260,1760,260,1680,260C1600,260,1520,260,1440,260C1360,260,1280,260,1200,260C1120,260,1040,260,960,260C880,260,800,260,720,260C640,260,560,260,480,260C400,260,320,260,240,260C160,260,80,260,40,260L0,260Z"></path></svg>
